<?xml version="1.0" encoding="UTF-8"?>
<svg version="1.1" xmlns="http://www.w3.org/2000/svg" width="364" height="386" viewBox="0 0 330 386">
<path d="M0 0 C120.12 0 240.24 0 364 0 C364 127.38 364 254.76 364 386 C243.88 386 123.76 386 0 386 C0 258.62 0 131.24 0 0 Z " fill="#A1E895" transform="translate(0,0)"/>
<path d="M0 0 C120.12 0 240.24 0 364 0 C364 127.38 364 254.76 364 386 C243.88 386 123.76 386 0 386 C0 258.62 0 131.24 0 0 Z M104 39 C103.071875 39.598125 102.14375 40.19625 101.1875 40.8125 C96.8956208 45.1043792 94.0839933 49.66978588 93.86328125 55.79296875 C93.90839844 56.85128906 93.95351562 57.90960938 94 59 C93.01902344 58.71125 92.03804687 58.4225 91.02734375 58.125 C72.17127772 52.82880245 54.05259851 54.46533494 36 62 C37.0667722 65.38257918 38.25269069 68.67494805 39.62890625 71.94140625 C43.89422108 82.10010378 47.40694391 92.31662147 50.5625 102.875 C55.64171632 120.49642273 55.64171632 120.49642273 66.1875 135.125 C68.15652645 137.46678201 69.01992865 139.02864612 68.95654297 142.11816406 C68.30995076 147.26391712 67.06002131 152.24706265 65.72680664 157.25170898 C55.58003905 195.6199195 55.68418841 235.03875771 62 274 C62.18723633 275.18126465 62.37447266 276.3625293 62.56738281 277.57958984 C67.33481258 307.04461131 75.27907469 335.93581839 88 363 C92.85389057 361.95319632 96.22290962 359.22977432 100.24609375 356.3984375 C103 355 103 355 105.578125 355.09765625 C108.23899715 356.08904571 110.09495936 357.29598458 112.3125 359.0625 C113.00988281 359.61035156 113.70726563 360.15820312 114.42578125 360.72265625 C115.20501953 361.35494141 115.20501953 361.35494141 116 362 C119.70398737 360.47631429 121.84748725 358.27840894 124.5 355.3125 C125.62921875 354.06919922 125.62921875 354.06919922 126.78125 352.80078125 C129.26586041 349.66439804 131.09404449 346.51302254 133 343 C133.96550781 343.144375 134.93101562 343.28875 135.92578125 343.4375 C146.38073927 344.83738429 156.79978698 345.24280059 167.33529663 345.29956055 C168.83682009 345.30804588 170.3383254 345.32154275 171.8397522 345.34057617 C182.87220927 345.46530822 193.20029464 344.24223262 204 342 C204.43916748 343.15230103 204.43916748 343.15230103 204.88720703 344.32788086 C206.18280757 347.43897079 207.87670479 349.85160517 209.875 352.5625 C210.55304688 353.49191406 211.23109375 354.42132813 211.9296875 355.37890625 C213.83119826 357.78629062 215.71460495 359.95466745 218 362 C221.34606456 362.11153549 222.41369053 360.61328928 224.875 358.3125 C228 356 228 356 230.6875 356.3125 C232.68931152 357.33229077 234.67239786 358.39198082 236.61328125 359.5234375 C238.04220703 360.34714844 238.04220703 360.34714844 239.5 361.1875 C240.84578125 362.01314453 240.84578125 362.01314453 242.21875 362.85546875 C245.73578482 364.30278785 247.36615419 364.05737064 251 363 C260.27470515 358.64588693 268.4377577 352.88704209 276 346 C276.5465625 345.50258301 277.093125 345.00516602 277.65625 344.49267578 C307.53315092 316.94157155 321.70317715 275.85033679 325 236 C325.11835786 232.78890629 325.11767165 229.58400454 325.09765625 226.37109375 C325.0962413 225.49598648 325.09482635 224.62087921 325.09336853 223.71925354 C325.08782719 220.95863238 325.07528612 218.19809612 325.0625 215.4375 C325.0574774 213.55143347 325.05291583 211.66536566 325.04882812 209.77929688 C325.03787707 205.18616583 325.02065384 200.59309725 325 196 C324.1181604 195.92483154 324.1181604 195.92483154 323.21850586 195.84814453 C289.72136556 192.96716182 289.72136556 192.96716182 277 189 C276.85304688 188.01386719 276.70609375 187.02773437 276.5546875 186.01171875 C274.83479331 174.93634164 272.52987703 164.04415359 269.98193359 153.12963867 C269.72621582 152.0182251 269.47049805 150.90681152 269.20703125 149.76171875 C268.9747583 148.77131592 268.74248535 147.78091309 268.50317383 146.76049805 C267.28445611 140.07440329 267.28445611 140.07440329 269.28515625 137.0703125 C270.16494141 136.10738281 270.16494141 136.10738281 271.0625 135.125 C279.87336988 124.44435478 283.65604331 110.6219499 287.5 97.5625 C290.39629451 87.74632265 293.50329037 78.28138847 297.79064941 68.97108459 C299.44346256 65.62594622 299.44346256 65.62594622 300 62 C280.61910061 53.46588968 259.88970007 53.1027653 240 60 C239.9484375 59.23816406 239.896875 58.47632813 239.84375 57.69140625 C239.08188365 50.75669093 237.70849564 46.05806031 232.69921875 41.09375 C200.26662705 15.93619696 136.9959172 16.58292648 104 39 Z" fill="white" transform="translate(0,0)"/>
<path d="M0 0 C5.62236465 5.59202815 6.89567729 11.19808512 7.421875 18.97265625 C8.1746875 18.69550781 8.9275 18.41835938 9.703125 18.1328125 C29.07155134 11.52780303 48.71853702 13.20676948 67.421875 20.97265625 C65.71701571 26.37137733 63.77780061 31.58174235 61.609375 36.8125 C58.66079203 44.06243291 56.35765893 51.42336757 54.1524353 58.92633057 C46.04384489 86.32709768 46.04384489 86.32709768 37.62890625 94.77734375 C34.99027895 98.59751567 35.05649982 99.92873718 35.8359375 104.32226562 C36.02929688 105.19689453 36.22265625 106.07152344 36.421875 106.97265625 C36.74285156 108.52436523 36.74285156 108.52436523 37.0703125 110.10742188 C38.08127054 114.85511997 39.16001702 119.58629142 40.25 124.31640625 C42.00779269 132.20924008 43.03129761 139.89511178 43.421875 147.97265625 C34.48272907 146.5432444 34.48272907 146.5432444 30.421875 143.97265625 C28.89501463 140.65865723 28.38034492 137.24470504 27.796875 133.66015625 C27.39836181 131.56487054 26.99859098 129.46982369 26.59765625 127.375 C26.30689209 125.77374268 26.30689209 125.77374268 26.01025391 124.14013672 C25.11282533 119.30891751 24.06700809 114.5153403 22.984375 109.72265625 C22.67862549 108.36333984 22.67862549 108.36333984 22.36669922 106.9765625 C20.42596362 98.58027982 17.84971478 90.44166539 15.15820312 82.26171875 C13.7000814 77.72877799 12.39122487 73.1513139 11.0703125 68.5769043 C10.20468047 65.5905479 9.30578776 62.63564173 8.29296875 59.6953125 C7.0445482 55.79329851 7.17101811 53.92273063 8.421875 49.97265625 C14.04006832 41.92813002 22.0260214 35.10460745 31.421875 31.97265625 C34.421875 36.59765625 34.421875 36.59765625 34.421875 39.97265625 C32.2265625 41.5859375 32.2265625 41.5859375 29.296875 43.28515625 C22.65622513 47.34431358 22.65622513 47.34431358 17.421875 52.97265625 C17.06050519 59.59776946 19.92713694 65.85196839 22.078125 72.05078125 C24.01461158 77.64322095 25.71179151 83.30740758 27.421875 88.97265625 C36.81113022 76.52975267 40.68640068 61.37755878 44.4453125 46.47265625 C46.02495548 40.8112158 48.1859179 35.40676509 50.421875 29.97265625 C31.35758305 27.35264741 14.73501961 28.73790614 -1.578125 39.97265625 C-2.75568359 40.74029297 -2.75568359 40.74029297 -3.95703125 41.5234375 C-9.59899191 45.710749 -11.01053981 50.22391294 -12.49609375 56.984375 C-14.19981773 61.68960548 -17.86115412 63.90430934 -22.265625 65.97265625 C-48.73290402 77.22681019 -84.10353118 76.21733264 -110.578125 65.97265625 C-115.02095669 63.9582918 -117.84243585 62.23383765 -120.328125 57.97265625 C-121.17163298 55.61807875 -121.73300235 53.28725981 -122.28515625 50.84375 C-124.27999715 42.7809745 -124.27999715 42.7809745 -130.265625 37.41015625 C-132.01689895 36.55631405 -133.78814469 35.74205695 -135.578125 34.97265625 C-136.33738281 34.58722656 -137.09664062 34.20179687 -137.87890625 33.8046875 C-146.1149793 29.75248104 -154.19465734 28.80476415 -163.265625 28.72265625 C-163.97847656 28.71331055 -164.69132812 28.70396484 -165.42578125 28.69433594 C-170.15924542 28.72293028 -174.08193288 29.48767537 -178.578125 30.97265625 C-178.19140625 31.95363281 -177.8046875 32.93460938 -177.40625 33.9453125 C-174.29113149 41.97238601 -171.70739927 49.89993585 -169.5625 58.2421875 C-166.69051451 69.12610075 -163.243067 78.73393261 -156.578125 87.97265625 C-154.67526421 85.11836506 -153.87948671 83.07244224 -152.921875 79.82421875 C-152.62152344 78.81875 -152.32117188 77.81328125 -152.01171875 76.77734375 C-151.70363281 75.72804688 -151.39554688 74.67875 -151.078125 73.59765625 C-150.46556557 71.52674402 -149.85104767 69.45640987 -149.234375 67.38671875 C-148.96431641 66.46842285 -148.69425781 65.55012695 -148.41601562 64.60400391 C-147.578125 61.97265625 -147.578125 61.97265625 -146.46484375 59.29638672 C-145.34579171 56.36380485 -145.54573262 54.91688638 -146.578125 51.97265625 C-151.08054381 46.55137645 -157.36480164 43.09370062 -163.578125 39.97265625 C-161.703125 34.22265625 -161.703125 34.22265625 -160.578125 31.97265625 C-150.42763039 35.74702789 -142.34468376 41.8452314 -136.33203125 50.8359375 C-134.45564106 56.15399675 -137.49095936 61.96211647 -139.265625 67.03515625 C-151.77128591 103.86136448 -161.04058534 142.57090913 -160.953125 181.59765625 C-160.95291351 182.48018066 -160.95270203 183.36270508 -160.95248413 184.27197266 C-160.85571621 225.15114474 -151.83538901 264.48557859 -138.578125 302.97265625 C-135.13451868 302.97265625 -133.83017108 302.17674093 -130.890625 300.47265625 C-130.08238281 300.00859375 -129.27414063 299.54453125 -128.44140625 299.06640625 C-127.82652344 298.70546875 -127.21164063 298.34453125 -126.578125 297.97265625 C-126.03542969 298.40578125 -125.49273437 298.83890625 -124.93359375 299.28515625 C-124.21816406 299.84203125 -123.50273438 300.39890625 -122.765625 300.97265625 C-121.70408203 301.80796875 -121.70408203 301.80796875 -120.62109375 302.66015625 C-118.56216501 304.24291308 -118.56216501 304.24291308 -115.578125 303.97265625 C-113.103125 299.02265625 -113.103125 299.02265625 -110.578125 293.97265625 C-111.485625 293.82828125 -112.393125 293.68390625 -113.328125 293.53515625 C-115.79289456 293.10856152 -118.16659607 292.62191404 -120.578125 291.97265625 C-119.918125 289.66265625 -119.258125 287.35265625 -118.578125 284.97265625 C-114.90471757 283.63608782 -112.81913518 284.35625982 -109.203125 285.66015625 C-87.91662408 292.44065099 -64.68956684 294.87971886 -42.70288086 290.27856445 C-31.99099743 288.06261473 -31.99099743 288.06261473 -27.23046875 291.12890625 C-24.76636845 293.6359003 -22.80062366 296.44476771 -20.81835938 299.33789062 C-17.56539015 303.62566266 -12.80869572 306.70417794 -8.578125 309.97265625 C-6.90965623 311.30373383 -5.24246118 312.63641502 -3.578125 313.97265625 C-4.81365776 315.17520149 -6.06714839 316.35931857 -7.328125 317.53515625 C-8.02421875 318.19644531 -8.7203125 318.85773438 -9.4375 319.5390625 C-11.578125 320.97265625 -11.578125 320.97265625 -13.59765625 320.94140625 C-20.10690195 317.75739652 -25.40212962 309.33991622 -28.578125 302.97265625 C-28.578125 302.31265625 -28.578125 301.65265625 -28.578125 300.97265625 C-30.11654053 301.29206177 -30.11654053 301.29206177 -31.68603516 301.61791992 C-42.20653796 303.69929298 -52.24734932 304.4208722 -62.953125 304.28515625 C-64.48673389 304.2764896 -66.02034395 304.26802794 -67.55395508 304.25976562 C-78.31064159 304.16584698 -88.92932274 303.56500051 -99.578125 301.97265625 C-99.990625 302.67390625 -100.403125 303.37515625 -100.828125 304.09765625 C-104.77021964 310.57395458 -108.96098426 315.88075465 -114.578125 320.97265625 C-117.82040413 319.80609298 -120.13237263 318.71006414 -122.578125 316.28515625 C-125.26217087 313.68617977 -125.26217087 313.68617977 -127.94921875 314.140625 C-130.86099862 315.06218386 -133.07431352 316.32260127 -135.640625 317.97265625 C-138.623832 319.88485057 -141.07583031 321.32558102 -144.578125 321.97265625 C-148.82687795 312.46569486 -152.52167726 302.87143372 -155.87548828 293.01611328 C-156.51709387 291.15015123 -157.18493355 289.29326255 -157.85546875 287.4375 C-166.57523514 262.72685212 -170.14133842 236.83671506 -173.578125 210.97265625 C-173.7026001 210.05234619 -173.8270752 209.13203613 -173.95532227 208.18383789 C-177.79273071 175.68502958 -173.68751184 142.27739276 -165.68920898 110.76782227 C-165.38700439 109.54248779 -165.0847998 108.31715332 -164.7734375 107.0546875 C-164.35602295 105.43397339 -164.35602295 105.43397339 -163.93017578 103.78051758 C-163.26512454 98.47624968 -166.8517403 95.1179863 -169.765625 90.91015625 C-178.04240213 78.36852592 -181.68838994 63.78051267 -185.86791992 49.49755859 C-188.28976529 41.43565914 -191.47958289 33.89703864 -195.07421875 26.296875 C-196.578125 22.97265625 -196.578125 22.97265625 -196.578125 20.97265625 C-176.65687885 13.84237416 -159.10920613 11.92934196 -138.578125 17.97265625 C-138.63419922 16.37744141 -138.63419922 16.37744141 -138.69140625 14.75 C-138.52987093 9.36363259 -136.90060905 6.15999515 -133.578125 1.97265625 C-122.29922746 -8.27586892 -109.12596428 -12.12682912 -94.578125 -15.02734375 C-93.49273437 -15.25550781 -92.40734375 -15.48367187 -91.2890625 -15.71875 C-62.96449075 -20.74407725 -23.62006578 -18.57396082 0 0 Z " fill="#1C4439" transform="translate(232.578125,41.02734375)"/>
<path d="M0 0 C18.91990686 8.82474455 40.20552367 10.87113906 60.8125 11.75 C61.35844319 49.95762408 58.40493533 85.69568312 39.8125 119.75 C39.29816406 120.69359375 38.78382813 121.6371875 38.25390625 122.609375 C29.37646157 138.10280149 16.82597124 150.31869425 1.8125 159.75 C0.80316406 160.38550781 -0.20617187 161.02101563 -1.24609375 161.67578125 C-8.26559369 165.81890537 -8.26559369 165.81890537 -12.21875 165.5234375 C-26.02169001 161.92740839 -39.48614726 151.0346004 -49.1875 140.75 C-49.1875 140.09 -49.1875 139.43 -49.1875 138.75 C-49.8475 138.75 -50.5075 138.75 -51.1875 138.75 C-70.82973394 115.43724759 -81.24456211 85.0085816 -83.86328125 54.85546875 C-83.99347215 51.84478871 -83.99347215 51.84478871 -85.1875 49.75 C-86.68019645 37.16343608 -86.29464415 24.39795481 -86.1875 11.75 C-85.26976807 11.69054199 -85.26976807 11.69054199 -84.33349609 11.62988281 C-61.31717705 10.07860605 -39.0411392 7.75840127 -18.390625 -3.17578125 C-11.58958104 -5.45661916 -6.11651151 -3.04262173 0 0 Z " fill="#F4BC6C" transform="translate(258.1875,190.25)"/>
<path d="M0 0 C0 11.88 0 23.76 0 36 C-2.97 36.99 -5.94 37.98 -9 39 C-13.30662164 41.71504408 -15.02683116 44.34856875 -17 49 C-17.56915172 52.6508519 -17.56915172 52.6508519 -17.6875 56.375 C-17.75324219 57.62023437 -17.81898438 58.86546875 -17.88671875 60.1484375 C-17.92410156 61.08945313 -17.96148437 62.03046875 -18 63 C-16.33445068 62.98428955 -16.33445068 62.98428955 -14.63525391 62.96826172 C-10.52412121 62.93212051 -6.41300261 62.90912104 -2.30175781 62.89013672 C-0.52080933 62.88006569 1.26012257 62.86640815 3.04101562 62.84912109 C5.59769783 62.82492087 8.15416185 62.81352816 10.7109375 62.8046875 C11.90944839 62.78920364 11.90944839 62.78920364 13.13217163 62.77340698 C15.0895722 62.77300774 17.04643077 62.87758931 19 63 C21.6572762 65.6572762 21.26014618 67.65802123 21.30354309 71.27392578 C21.30263168 72.13228027 21.30172028 72.99063477 21.30078125 73.875 C21.30506638 74.75526855 21.3093515 75.63553711 21.31376648 76.54248047 C21.31951441 78.40526468 21.32000664 80.26807134 21.31567383 82.13085938 C21.31251253 84.98866841 21.33597138 87.84544397 21.36132812 90.703125 C21.36360085 92.51041535 21.36430474 94.31770851 21.36328125 96.125 C21.372491 96.98335449 21.38170074 97.84170898 21.39118958 98.72607422 C21.37231445 101.1328125 21.37231445 101.1328125 21 105 C18 107 18 107 1 107 C1 122.18 1 137.36 1 153 C-16.57075898 149.4858482 -32.41332339 133.33080405 -42.25 118.875 C-47.18197825 111.36759669 -50.7718127 103.27670618 -54.17333984 94.98608398 C-54.93220649 93.16287661 -55.74675145 91.36310593 -56.56640625 89.56640625 C-65.59780406 67.09865094 -66.87619973 39.94945926 -66 16 C-65.3922876 15.93006836 -64.7845752 15.86013672 -64.15844727 15.78808594 C-44.06645221 13.43389531 -23.07898615 10.58181335 -4.94067383 0.90087891 C-3 0 -3 0 0 0 Z " fill="#EFB456" transform="translate(247,194)"/>
<path d="M0 0 C4.22016712 3.93420097 6.59228545 7.49687738 6.8828125 13.42578125 C6.89994308 15.37524175 6.84452919 17.32505976 6.77734375 19.2734375 C6.15085938 19.47839844 5.524375 19.68335938 4.87890625 19.89453125 C4.06164062 20.16394531 3.244375 20.43335938 2.40234375 20.7109375 C1.59023437 20.97777344 0.778125 21.24460938 -0.05859375 21.51953125 C-2.23297424 22.22523479 -2.23297424 22.22523479 -4.22265625 23.2734375 C-5.29054811 25.6401819 -5.29054811 25.6401819 -6.22265625 28.4609375 C-6.55265625 29.40324219 -6.88265625 30.34554687 -7.22265625 31.31640625 C-8.23137649 34.29922354 -9.22778596 37.28597674 -10.22265625 40.2734375 C-20.51244424 41.16480955 -30.7185673 41.42205977 -41.0390625 41.40625 C-42.62784337 41.40692666 -44.21662414 41.40789967 -45.80540466 41.40914917 C-49.1174316 41.41061214 -52.42943134 41.40851918 -55.74145508 41.40380859 C-59.92101023 41.39814428 -64.10050121 41.40146328 -68.28005409 41.40726089 C-85.28540707 41.42714797 -102.24514336 41.38377317 -119.22265625 40.2734375 C-119.71720006 38.32617125 -120.21171889 36.37889865 -120.70605469 34.43157959 C-121.08804486 32.92821536 -121.47138872 31.42519495 -121.85546875 29.92236328 C-123.22265625 24.49565972 -123.22265625 24.49565972 -123.22265625 22.2734375 C-128.17265625 20.7884375 -128.17265625 20.7884375 -133.22265625 19.2734375 C-133.81265536 8.50595367 -133.81265536 8.50595367 -130.73046875 3.92578125 C-103.92190771 -25.45251233 -29.79270431 -23.14301459 0 0 Z " fill="#1D493E" transform="translate(230.22265625,42.7265625)"/>
<path d="M0 0 C18.91990686 8.82474455 40.20552367 10.87113906 60.8125 11.75 C61.35844319 49.95762408 58.40493533 85.69568312 39.8125 119.75 C39.29816406 120.69359375 38.78382813 121.6371875 38.25390625 122.609375 C29.37646157 138.10280149 16.82597124 150.31869425 1.8125 159.75 C0.80316406 160.38550781 -0.20617187 161.02101563 -1.24609375 161.67578125 C-8.26559369 165.81890537 -8.26559369 165.81890537 -12.21875 165.5234375 C-26.02169001 161.92740839 -39.48614726 151.0346004 -49.1875 140.75 C-49.1875 140.09 -49.1875 139.43 -49.1875 138.75 C-49.8475 138.75 -50.5075 138.75 -51.1875 138.75 C-70.82973394 115.43724759 -81.24456211 85.0085816 -83.86328125 54.85546875 C-83.99347215 51.84478871 -83.99347215 51.84478871 -85.1875 49.75 C-86.68019645 37.16343608 -86.29464415 24.39795481 -86.1875 11.75 C-85.26976807 11.69054199 -85.26976807 11.69054199 -84.33349609 11.62988281 C-61.31717705 10.07860605 -39.0411392 7.75840127 -18.390625 -3.17578125 C-11.58958104 -5.45661916 -6.11651151 -3.04262173 0 0 Z M-20.375 6.4375 C-38.51736255 14.3985263 -57.50984795 18.02773744 -77.1875 19.75 C-78.61982992 58.90035106 -72.37397672 101.75758294 -45.625 132.125 C-44.15387862 133.67434567 -42.67519984 135.21656617 -41.1875 136.75 C-40.58808594 137.42289063 -39.98867187 138.09578125 -39.37109375 138.7890625 C-32.85940162 145.84925569 -22.64582476 154.21351872 -13.1875 156.75 C-0.59016727 155.95957912 11.69448791 143.23868428 19.9375 134.5625 C44.39777547 106.69096583 53.15287845 67.70969937 52.875 31.5 C52.86823242 29.79263672 52.86823242 29.79263672 52.86132812 28.05078125 C52.84970214 25.28379591 52.83336431 22.51692842 52.8125 19.75 C52.17562256 19.69054199 51.53874512 19.63108398 50.88256836 19.56982422 C30.24349985 17.56552945 10.59607253 14.11354653 -8.203125 5.0703125 C-13.19760271 2.86071372 -15.61143301 4.26127895 -20.375 6.4375 Z " fill="#FEFCF8" transform="translate(258.1875,190.25)"/>
<path d="M0 0 C1.96646484 -0.01836914 1.96646484 -0.01836914 3.97265625 -0.03710938 C14.4796373 -0.05291727 27.42153228 0.10532929 35.7265625 7.640625 C37.0625 9.1875 37.0625 9.1875 39.125 12.1875 C39.558125 12.80625 39.99125 13.425 40.4375 14.0625 C42.74118179 21.18297098 40.68470866 26.34358095 37.38452148 32.8215332 C32.0883792 42.40190615 24.09142628 49.65892706 14.125 54.1875 C13.37347656 54.57679688 12.62195313 54.96609375 11.84765625 55.3671875 C4.65302641 58.93375614 -0.76920038 59.05944758 -8.3125 56.5625 C-13.7055923 54.44405157 -18.26618582 51.67477765 -22.875 48.1875 C-23.79925781 47.51074219 -23.79925781 47.51074219 -24.7421875 46.8203125 C-32.01266672 41.10086884 -38.85545382 32.14103403 -40.22265625 22.81640625 C-40.53764248 17.51009978 -39.86721705 13.3845456 -36.75390625 9.01171875 C-26.62033699 -0.82690255 -13.07927021 0.00639261 0 0 Z " fill="#9CF772" transform="translate(167.875,127.8125)"/>
<path d="M0 0 C1.87320469 0.83346459 3.72577166 1.7139632 5.5625 2.625 C27.03912439 13.01287776 50.50983424 15.55560177 74 17 C74.435298 39.35087795 74.70054731 61.0252536 70 83 C69.76772705 84.14033691 69.76772705 84.14033691 69.53076172 85.30371094 C62.39689675 119.70110636 44.86582115 154.65217496 15.3125 175 C13.2250649 176.35937847 11.12133445 177.69415342 9 179 C7.99453125 179.63164062 6.9890625 180.26328125 5.953125 180.9140625 C-1.01196716 185.03664408 -1.01196716 185.03664408 -4.84375 184.89453125 C-8.77699437 183.77978749 -12.03434581 182.0996248 -15.5625 180.0625 C-16.26068848 179.66281006 -16.95887695 179.26312012 -17.67822266 178.85131836 C-46.13505613 162.1754197 -63.6579022 135.7971963 -74 105 C-74.36609375 103.96230469 -74.7321875 102.92460937 -75.109375 101.85546875 C-84.15820089 74.74379425 -85.33422337 45.33471435 -85 17 C-84.20118408 16.93530518 -83.40236816 16.87061035 -82.5793457 16.80395508 C-58.22536708 14.76877933 -33.7416349 11.75011244 -11.71875 0.29296875 C-7.48409804 -1.72092464 -4.44957852 -1.21413804 0 0 Z M-13.75 9.6875 C-34.28055845 19.49037926 -56.6001168 21.42445575 -79 23 C-80.64537968 43.45852838 -80.64537968 43.45852838 -77 63 C-76.77469407 65.3109081 -76.57064434 67.62389193 -76.375 69.9375 C-73.52082502 97.0670588 -63.66475168 129.89946435 -44 150 C-43.34 150 -42.68 150 -42 150 C-41.75636719 150.57492187 -41.51273438 151.14984375 -41.26171875 151.7421875 C-35.16424269 162.65346045 -19.01026626 171.52343285 -7.9296875 176.57421875 C-1.37796405 178.01984194 5.59176891 173.13141682 11 170 C38.82272123 151.17284609 56.93634742 120.91268415 63.59130859 88.08300781 C67.60036064 66.26914801 68.1505294 45.12318951 68 23 C66.95585937 22.97421875 65.91171875 22.9484375 64.8359375 22.921875 C43.60977021 22.18538205 21.61279228 18.51317574 2.36376953 9.28588867 C-4.20688955 6.19445849 -7.37750721 6.41045384 -13.75 9.6875 Z " fill="#EEB65C" transform="translate(251,179)"/>
<path d="M0 0 C-1.70485929 5.39872108 -3.64407439 10.6090861 -5.8125 15.83984375 C-8.76108297 23.08977666 -11.06421607 30.45071132 -13.2694397 37.95367432 C-21.37803011 65.35444143 -21.37803011 65.35444143 -29.79296875 73.8046875 C-32.43159605 77.62485942 -32.36537518 78.95608093 -31.5859375 83.34960938 C-31.39257812 84.22423828 -31.19921875 85.09886719 -31 86 C-30.78601563 87.03447266 -30.57203125 88.06894531 -30.3515625 89.13476562 C-29.34060446 93.88246372 -28.26185798 98.61363517 -27.171875 103.34375 C-25.41408231 111.23658383 -24.39057739 118.92245553 -24 127 C-32.93914593 125.57058815 -32.93914593 125.57058815 -37 123 C-38.52686037 119.68600098 -39.04153008 116.27204879 -39.625 112.6875 C-40.02351319 110.59221429 -40.42328402 108.49716744 -40.82421875 106.40234375 C-41.01806152 105.33483887 -41.2119043 104.26733398 -41.41162109 103.16748047 C-42.30904967 98.33626126 -43.35486691 93.54268405 -44.4375 88.75 C-44.64133301 87.84378906 -44.84516602 86.93757813 -45.05517578 86.00390625 C-46.99591138 77.60762357 -49.57216022 69.46900914 -52.26367188 61.2890625 C-53.7217936 56.75612174 -55.03065013 52.17865765 -56.3515625 47.60424805 C-57.21719453 44.61789165 -58.11608724 41.66298548 -59.12890625 38.72265625 C-60.3773268 34.82064226 -60.25085689 32.95007438 -59 29 C-53.38180668 20.95547377 -45.3958536 14.1319512 -36 11 C-33 15.625 -33 15.625 -33 19 C-35.1953125 20.61328125 -35.1953125 20.61328125 -38.125 22.3125 C-44.76564987 26.37165733 -44.76564987 26.37165733 -50 32 C-50.36136981 38.62511321 -47.49473806 44.87931214 -45.34375 51.078125 C-43.40726342 56.6705647 -41.71008349 62.33475133 -40 68 C-30.61074478 55.55709642 -26.73547432 40.40490253 -22.9765625 25.5 C-21.39691952 19.83855955 -19.2359571 14.43410884 -17 9 C-38.71366214 6.01588777 -55.78659479 9.13010875 -73.75 22.4375 C-74.83860867 23.28493317 -75.92428234 24.136262 -77 25 C-75.76388336 18.16500212 -74.08277943 11.62702546 -72 5 C-66.555 4.01 -66.555 4.01 -61 3 C-60.67 1.35 -60.34 -0.3 -60 -2 C-40.11029993 -8.8972347 -19.38089939 -8.53411032 0 0 Z " fill="#204C40" transform="translate(300,62)"/>
<path d="M0 0 C1.21627579 0.00137466 1.21627579 0.00137466 2.4571228 0.0027771 C4.16678745 0.00880741 5.87644181 0.02453644 7.5859375 0.04931641 C10.20872695 0.08590666 12.83010656 0.09033514 15.453125 0.08984375 C17.11459559 0.09967209 18.77605659 0.11132787 20.4375 0.125 C21.22395905 0.12722565 22.01041809 0.12945129 22.82070923 0.13174438 C28.35376175 0.22876175 28.35376175 0.22876175 30.5859375 2.4609375 C30.79825812 5.45041189 30.88989468 8.34487616 30.88671875 11.3359375 C30.89100388 12.21620605 30.895289 13.09647461 30.89970398 14.00341797 C30.90545191 15.86620218 30.90594414 17.72900884 30.90161133 19.59179688 C30.89845003 22.44960591 30.92190888 25.30638147 30.94726562 28.1640625 C30.94953835 29.97135285 30.95024224 31.77864601 30.94921875 33.5859375 C30.9584285 34.44429199 30.96763824 35.30264648 30.97712708 36.18701172 C30.95825195 38.59375 30.95825195 38.59375 30.5859375 42.4609375 C26.90733976 44.913336 24.07201837 44.78396648 19.8125 44.796875 C18.67136246 44.8068602 18.67136246 44.8068602 17.50717163 44.81704712 C15.89836035 44.82716673 14.28950714 44.83186435 12.68066406 44.83154297 C10.22650443 44.8359098 7.77415317 44.87221534 5.3203125 44.91015625 C3.75521447 44.91602599 2.19010791 44.91999433 0.625 44.921875 C-0.47054703 44.94343155 -0.47054703 44.94343155 -1.58822632 44.96542358 C-5.00503168 44.93498267 -7.32624521 44.50601468 -10.37719727 42.93994141 C-13.17348704 39.53666605 -13.11712281 36.55457986 -13.04296875 32.3359375 C-13.04658669 31.1600708 -13.04658669 31.1600708 -13.05027771 29.96044922 C-13.04930003 28.30626354 -13.03592501 26.65204484 -13.01098633 24.99804688 C-12.9766708 22.46891929 -12.99032899 19.94328587 -13.00976562 17.4140625 C-13.00286692 15.80467266 -12.99319431 14.19529182 -12.98046875 12.5859375 C-12.98542862 11.8316748 -12.99038849 11.07741211 -12.99549866 10.30029297 C-12.92233088 7.03131017 -12.61714015 4.79444072 -10.90454102 1.98193359 C-7.35044077 -0.18864229 -4.03843255 -0.07417646 0 0 Z " fill="#204B3F" transform="translate(237.4140625,256.5390625)"/>
<path d="M0 0 C2.45888149 0.91521643 4.91710181 1.83214933 7.375 2.75 C8.05433594 3.00265625 8.73367187 3.2553125 9.43359375 3.515625 C13.28917519 4.95696386 17.10518168 6.4591946 20.90625 8.0390625 C25.88998229 10.03906885 30.89754861 11.42177046 36.125 12.625 C37.03588379 12.83737305 37.94676758 13.04974609 38.88525391 13.26855469 C51.83053912 16.19468364 64.7853219 17.1562821 78 18 C78.435298 40.35087795 78.70054731 62.0252536 74 84 C73.76772705 85.14033691 73.76772705 85.14033691 73.53076172 86.30371094 C66.07235137 122.26596858 47.45809074 157.51973734 16.19921875 178.08984375 C11.27455499 181.03021076 6.21006212 183.60618767 1 186 C1 183.69 1 181.38 1 179 C0.34 178.67 -0.32 178.34 -1 178 C0.50626953 177.30777344 0.50626953 177.30777344 2.04296875 176.6015625 C33.24001518 161.88336907 50.50157056 136.17829987 62.2734375 104.58203125 C71.14116503 78.65064619 71.08335059 51.0951877 72 24 C70.83041748 24.02030273 69.66083496 24.04060547 68.45581055 24.06152344 C59.72481566 24.16796845 51.39649131 24.04402619 42.8125 22.25 C41.42490479 21.97603394 41.42490479 21.97603394 40.00927734 21.6965332 C37.33343037 21.15601676 34.66626747 20.58575909 32 20 C31.28150879 19.84515137 30.56301758 19.69030273 29.82275391 19.53076172 C18.23340186 16.96387801 7.53748604 12.38879033 -3 7 C-2.01 7 -1.02 7 0 7 C0 4.69 0 2.38 0 0 Z " fill="#F5BE72" transform="translate(247,178)"/>
<path d="M0 0 C1.96646484 -0.01836914 1.96646484 -0.01836914 3.97265625 -0.03710938 C14.4796373 -0.05291727 27.42153228 0.10532929 35.7265625 7.640625 C37.0625 9.1875 37.0625 9.1875 39.125 12.1875 C39.558125 12.80625 39.99125 13.425 40.4375 14.0625 C42.74118179 21.18297098 40.68470866 26.34358095 37.38452148 32.8215332 C32.0883792 42.40190615 24.09142628 49.65892706 14.125 54.1875 C13.37347656 54.57679688 12.62195313 54.96609375 11.84765625 55.3671875 C4.65302641 58.93375614 -0.76920038 59.05944758 -8.3125 56.5625 C-13.7055923 54.44405157 -18.26618582 51.67477765 -22.875 48.1875 C-23.79925781 47.51074219 -23.79925781 47.51074219 -24.7421875 46.8203125 C-32.01266672 41.10086884 -38.85545382 32.14103403 -40.22265625 22.81640625 C-40.53764248 17.51009978 -39.86721705 13.3845456 -36.75390625 9.01171875 C-26.62033699 -0.82690255 -13.07927021 0.00639261 0 0 Z M-27.4375 12.6875 C-28.39849609 13.32171875 -28.39849609 13.32171875 -29.37890625 13.96875 C-31.66966988 15.8348551 -31.87741868 17.20170972 -32.375 20.125 C-32.24824918 26.88504364 -27.15333714 32.69970973 -22.79296875 37.4609375 C-16.77519977 43.12089319 -9.06018186 49.19595218 -0.5625 50 C8.64527353 49.28788802 18.4259901 43.05363818 24.4375 36.35546875 C30.32419641 28.86999026 30.32419641 28.86999026 32.875 19.875 C32.41855724 16.0148209 32.41855724 16.0148209 29.5 13.3125 C20.47106386 7.62761428 10.64537686 8.00586096 0.3125 8 C-1.37456055 7.98163086 -1.37456055 7.98163086 -3.09570312 7.96289062 C-15.85607958 7.90214476 -15.85607958 7.90214476 -27.4375 12.6875 Z " fill="#204D40" transform="translate(167.875,127.8125)"/>
<path d="M0 0 C2.64 0 5.28 0 8 0 C8.48062972 3.64564198 8.95923288 7.29154738 9.4375 10.9375 C9.57220703 11.95908203 9.70691406 12.98066406 9.84570312 14.03320312 C10.23711892 17.0213286 10.62122505 20.01024718 11 23 C11.15770874 24.23568726 11.15770874 24.23568726 11.31860352 25.49633789 C11.88601877 30.20835154 12.10866062 34.80795596 12.0625 39.5625 C12.05347656 40.78066406 12.04445312 41.99882812 12.03515625 43.25390625 C12.02355469 44.16011719 12.01195312 45.06632812 12 46 C11.21496094 45.79503906 10.42992187 45.59007812 9.62109375 45.37890625 C7.45468412 44.82334844 5.283827 44.28491436 3.109375 43.76171875 C0.78659011 43.19269481 -1.51880801 42.55182714 -3.8125 41.875 C-7.55079238 42.0215997 -8.04757249 42.58620631 -10.625 45.125 C-11.7621922 46.40594562 -12.88765456 47.69741971 -14 49 C-14.96935119 49.98888472 -15.94723904 50.96955478 -16.9375 51.9375 C-17.618125 52.618125 -18.29875 53.29875 -19 54 C-23.33887628 46.95680853 -27.31938022 39.78108087 -31.125 32.4375 C-31.63675781 31.46103516 -32.14851563 30.48457031 -32.67578125 29.47851562 C-34.14072093 26.66349657 -35.57980983 23.8378352 -37 21 C-37.42635742 20.14937988 -37.85271484 19.29875977 -38.29199219 18.42236328 C-38.66743164 17.63458496 -39.04287109 16.84680664 -39.4296875 16.03515625 C-39.75952637 15.34945557 -40.08936523 14.66375488 -40.42919922 13.95727539 C-41.13292008 11.54421715 -40.99478752 10.30056149 -40 8 C-36.9375 6.75 -36.9375 6.75 -34 6 C-33.5153125 6.98097656 -33.030625 7.96195313 -32.53125 8.97265625 C-28.63531978 16.82526812 -24.66822045 24.62129579 -20.43945312 32.30102539 C-18 36.78664959 -18 36.78664959 -18 39 C-17.45730469 38.50628906 -16.91460937 38.01257813 -16.35546875 37.50390625 C-15.64003906 36.86324219 -14.92460938 36.22257812 -14.1875 35.5625 C-13.47980469 34.92441406 -12.77210937 34.28632813 -12.04296875 33.62890625 C-10 32 -10 32 -7 31 C-4.51953125 31.55859375 -4.51953125 31.55859375 -1.8125 32.4375 C-0.46091797 32.86869141 -0.46091797 32.86869141 0.91796875 33.30859375 C1.60503906 33.53675781 2.29210937 33.76492188 3 34 C2.90912109 33.28980713 2.81824219 32.57961426 2.72460938 31.84790039 C2.31063659 28.58680322 1.90526373 25.32469044 1.5 22.0625 C1.35691406 20.94552734 1.21382812 19.82855469 1.06640625 18.67773438 C0.292614 12.39527823 -0.16108701 6.32937716 0 0 Z " fill="#214E40" transform="translate(120,230)"/>
<path d="M0 0 C4.54495715 2.62657287 6.53222096 4.59190705 8.8125 9.4375 C8.8125 14.7175 8.8125 19.9975 8.8125 25.4375 C-2.4075 25.4375 -13.6275 25.4375 -25.1875 25.4375 C-25.1875 9.41047297 -25.1875 9.41047297 -21.1875 4.4375 C-18.6875 2.125 -18.6875 2.125 -16.1875 0.4375 C-15.589375 0.025 -14.99125 -0.3875 -14.375 -0.8125 C-9.34044131 -2.53863441 -4.78162296 -2.10608346 0 0 Z " fill="#D5DAD8" transform="translate(254.1875,231.5625)"/>
<path d="M0 0 C0.80244141 0.00966797 1.60488281 0.01933594 2.43164062 0.02929688 C3.26501953 0.05443359 4.09839844 0.07957031 4.95703125 0.10546875 C6.22450195 0.12577148 6.22450195 0.12577148 7.51757812 0.14648438 C9.60183509 0.18181076 11.68576402 0.23561736 13.76953125 0.29296875 C14.05468349 3.67043863 14.23002086 6.92700898 13.76953125 10.29296875 C11.33203125 11.98046875 11.33203125 11.98046875 8.76953125 13.29296875 C7.60927726 16.7471819 7.60927726 16.7471819 7.76953125 20.29296875 C8.25292969 20.75445312 8.73632812 21.2159375 9.234375 21.69140625 C11.33150529 23.8792521 11.19727269 25.4358922 11.33203125 28.41796875 C11.41542197 31.03447473 11.41542197 31.03447473 11.76953125 33.29296875 C12.42953125 33.62296875 13.08953125 33.95296875 13.76953125 34.29296875 C13.76953125 36.93296875 13.76953125 39.57296875 13.76953125 42.29296875 C10.83148129 42.37383251 7.8956505 42.43339705 4.95703125 42.48046875 C4.12365234 42.50560547 3.29027344 42.53074219 2.43164062 42.55664062 C1.22797852 42.57114258 1.22797852 42.57114258 0 42.5859375 C-1.10758667 42.60950317 -1.10758667 42.60950317 -2.23754883 42.63354492 C-4.23046875 42.29296875 -4.23046875 42.29296875 -5.9699707 41.27856445 C-7.96372529 38.13790862 -7.65761169 34.83507267 -7.62890625 31.23046875 C-7.63321152 30.04892212 -7.63321152 30.04892212 -7.63760376 28.84350586 C-7.63964397 27.1791919 -7.63411707 25.51485394 -7.62158203 23.85058594 C-7.60552684 21.30218928 -7.62143119 18.75537854 -7.640625 16.20703125 C-7.63864256 14.58984025 -7.63479886 12.97265023 -7.62890625 11.35546875 C-7.63497894 10.59290771 -7.64105164 9.83034668 -7.64730835 9.04467773 C-7.5780761 3.84053617 -7.5780761 3.84053617 -5.9699707 1.30737305 C-3.81506975 0.05072554 -2.48801487 -0.05293649 0 0 Z " fill="#193E33" transform="translate(232.23046875,257.70703125)"/>
<path d="M0 0 C34.98 0 69.96 0 106 0 C106 1.65 106 3.3 106 5 C105 6 105 6 103.25274563 6.12304783 C102.48673566 6.12212604 101.72072569 6.12120424 100.9315033 6.12025452 C99.61683327 6.12231651 99.61683327 6.12231651 98.27560425 6.12442017 C96.82228195 6.11902725 96.82228195 6.11902725 95.33959961 6.11352539 C94.32508224 6.11367142 93.31056488 6.11381744 92.26530457 6.1139679 C88.89429627 6.11326829 85.52334246 6.10547368 82.15234375 6.09765625 C79.82206757 6.09579224 77.491791 6.09436826 75.16151428 6.09336853 C69.01462735 6.08954202 62.86776387 6.0797106 56.72088623 6.06866455 C50.45390134 6.05845329 44.18691268 6.05387152 37.91992188 6.04882812 C25.61327092 6.03808845 13.30663741 6.02101044 1 6 C0.67 4.02 0.34 2.04 0 0 Z " fill="#1C483D" transform="translate(113,86)"/>
<path d="M0 0 C0.62514257 7.50171083 -1.80439292 12.24141675 -6.4375 18.0625 C-9 20 -9 20 -11.5 20.1875 C-16.14131916 17.9828734 -19.07486285 13.67782194 -21 9 C-21.1953125 6.640625 -21.1953125 6.640625 -21.125 4.25 C-21.10695312 3.45078125 -21.08890625 2.6515625 -21.0703125 1.828125 C-21.04710937 1.22484375 -21.02390625 0.6215625 -21 0 C-13.37653783 -3.75397758 -7.88898527 -2.60296468 0 0 Z " fill="#ECB65F" transform="translate(175,47)"/>
<path d="M0 0 C2.9375 1.6875 2.9375 1.6875 5 5 C5.41760038 9.42228092 5.22529991 13.53906183 5 18 C-0.94 18 -6.88 18 -13 18 C-13.57959184 6.11836735 -13.57959184 6.11836735 -9 1 C-5.86128812 -0.56935594 -3.46144178 -0.35201103 0 0 Z " fill="#EFB559" transform="translate(250,239)"/>
<path d="M0 0 C2.875 1.5625 2.875 1.5625 5 4 C6.14888518 7.94929279 6.43129396 10.02958859 4.75 13.8125 C3 16 3 16 0 18 C-4.21178243 18.46797583 -6.28599114 18.46565795 -9.875 16.125 C-12.38666318 13.61333682 -12.92153796 12.70615837 -13.3125 9.1875 C-12.92835642 5.2692355 -11.70743683 3.78706733 -9 1 C-5.89951072 -0.55024464 -3.42105782 -0.28992015 0 0 Z " fill="#204D40" transform="translate(222,118)"/>
<path d="M0 0 C3.55247432 0.87379409 4.94828114 2.4927342 6.9375 5.4765625 C7.63597125 8.3162489 7.63597125 10.6368761 6.9375 13.4765625 C4.94163103 16.47036595 3.55490829 18.11464738 -0.03515625 18.91796875 C-3.60204757 19.12464843 -5.66075998 18.78559329 -8.5 16.6015625 C-11.3088885 12.78147414 -11.54640104 10.23492271 -11.0625 5.4765625 C-8.01308391 0.99773262 -5.26379448 -0.37883369 0 0 Z " fill="#204D40" transform="translate(120.0625,117.5234375)"/>
<path d="M0 0 C4.80538591 0.11516175 8.03844677 0.22657675 11.875 3.3125 C12.57625 4.199375 13.2775 5.08625 14 6 C14.80244141 6.81791016 14.80244141 6.81791016 15.62109375 7.65234375 C17.63327238 11.07817761 17.32009813 14.40125424 17.1875 18.25 C17.16719727 19.36761719 17.16719727 19.36761719 17.14648438 20.5078125 C17.11127204 22.33885416 17.05746851 24.16952169 17 26 C14.36 26 11.72 26 9 26 C8.97421875 25.10796875 8.9484375 24.2159375 8.921875 23.296875 C8.83679688 21.54117188 8.83679688 21.54117188 8.75 19.75 C8.70359375 18.58984375 8.6571875 17.4296875 8.609375 16.234375 C7.90403713 12.4906586 6.98921173 11.28586779 4 9 C1.35815459 8.20318682 1.35815459 8.20318682 -1 8 C-0.67 5.36 -0.34 2.72 0 0 Z " fill="#EBF3F2" transform="translate(246,231)"/>
<path d="M0 0 C2.3125 1.5625 2.3125 1.5625 4 4 C4.375 7.625 4.375 7.625 4 11 C3.34 11.66 2.68 12.32 2 13 C1.61405508 15.1374401 1.61405508 15.1374401 1.5 17.5 C1.22222222 21.77777778 1.22222222 21.77777778 -1 24 C-3.625 23.625 -3.625 23.625 -6 23 C-6.03738281 22.31292969 -6.07476562 21.62585938 -6.11328125 20.91796875 C-6.17902344 20.01691406 -6.24476563 19.11585938 -6.3125 18.1875 C-6.37050781 17.29417969 -6.42851562 16.40085937 -6.48828125 15.48046875 C-7.07707476 12.62639334 -7.95835739 11.95931831 -10 10 C-9.93273404 6.23310639 -9.82032733 3.90821955 -7.25 1.0625 C-4.50508782 -0.23370853 -2.99925788 -0.52487013 0 0 Z " fill="#E3EEF0" transform="translate(249,268)"/>
<path d="M0 0 C2.375 1.5 2.375 1.5 4 4 C4.59566305 8.69084654 4.62175128 10.85215148 2.375 15 C0 17 0 17 -3 17.5625 C-6 17 -6 17 -8.375 15.5625 C-10.77513557 11.77767083 -10.7842297 8.3612774 -10 4 C-7.35478334 -0.1713032 -4.79556761 -0.79926127 0 0 Z " fill="#204E3F" transform="translate(182,141)"/>
<path d="M0 0 C1.09570312 0.28746094 2.19140625 0.57492188 3.3203125 0.87109375 C4.16335937 1.09925781 5.00640625 1.32742187 5.875 1.5625 C6.50014257 9.06421083 4.07060708 13.80391675 -0.5625 19.625 C-3.125 21.5625 -3.125 21.5625 -5.9375 21.375 C-6.659375 21.106875 -7.38125 20.83875 -8.125 20.5625 C-7.465 20.2325 -6.805 19.9025 -6.125 19.5625 C-5.465 19.8925 -4.805 20.2225 -4.125 20.5625 C-4.125 13.9625 -4.125 7.3625 -4.125 0.5625 C-6.435 0.8925 -8.745 1.2225 -11.125 1.5625 C-6.48036648 -1.53392234 -5.3820708 -1.43140181 0 0 Z " fill="#E9BC77" transform="translate(169.125,45.4375)"/>
<path d="M0 0 C2.99710417 0.44956563 3.68343232 0.99789144 5.5 3.375 C5.8984375 5.75 5.8984375 5.75 5.875 8.375 C5.88273438 9.24125 5.89046875 10.1075 5.8984375 11 C5.42757752 13.80669477 4.76234706 14.6971828 2.5 16.375 C0 16.75 0 16.75 -2.5 16.375 C-4.76234706 14.6971828 -5.42757752 13.80669477 -5.8984375 11 C-5.89070312 10.13375 -5.88296875 9.2675 -5.875 8.375 C-5.88273438 7.50875 -5.89046875 6.6425 -5.8984375 5.75 C-5.26772498 1.99045873 -3.73328232 0.55999235 0 0 Z " fill="#1F4C3E" transform="translate(157.5,140.625)"/>
<path d="M0 0 C4.24331379 1.06082845 5.44193364 1.58169893 8 5 C8.390625 8.234375 8.390625 8.234375 8.25 11.75 C8.21390625 12.92046875 8.1778125 14.0909375 8.140625 15.296875 C8.07101563 16.63492188 8.07101563 16.63492188 8 18 C5.36 18 2.72 18 0 18 C0 12.06 0 6.12 0 0 Z " fill="#F4BC6C" transform="translate(247,239)"/>
</svg>
