<svg xmlns="http://www.w3.org/2000/svg" width="644" height="789" viewBox="0 0 644 489"><path d="M355 9c3.505 2.837 6.785 5.84 10 9l1.754 1.715c9.85 10.518 13.885 25.44 13.484 39.598-.41 4.627-1.255 9.15-2.238 13.687l2.691.664a1974 1974 0 0 1 28.5 7.317l2.852.75 2.532.668L417 83l2.591.72c2.376.492 2.376.492 4.223-.581l1.682-1.385 1.919-1.526 2.022-1.665C447.718 64.263 468.41 55.942 491 51l3.352-.746C524.072 44.907 559.315 49.579 586 64c-.645 5.039-2.854 9.214-5 13.75-8.015 17.425-13.943 35.494-19.187 53.918C551.44 168.077 551.44 168.077 544 182l-1.45 2.91c-3.263 6.358-7.218 11.548-11.987 16.875-2.344 4.822-.94 8.205.437 13.215q.694 2.947 1.367 5.898l.74 3.16c2.521 10.885 4.636 21.753 6.206 32.817l.481 3.396c2.003 14.817 2.447 29.486 2.456 44.416l.002 3.07c-.02 18.56-.944 36.83-3.252 55.243l-.257 2.063c-6.547 51.905-18.282 112.641-60.044 148.234C476 515 476 515 474.093 514.757c-2.298-.831-4.201-1.873-6.28-3.155l-2.368-1.454-2.445-1.523-2.445-1.5c-6.226-3.842-6.226-3.842-8.567-5.854-1.871-1.468-1.871-1.468-3.949-1.167-2.533 1.113-4.48 2.538-6.664 4.24l-2.64 2.027L436 508.5a1003 1003 0 0 1-5.375 4.156l-2.398 1.87c-2.144 1.419-3.715 2.047-6.227 2.474-29-32.787-29-32.787-29-42l-3.39.77c-42.862 9.374-88.546 9.17-131.547.78-3.036-.639-3.036-.639-6.063-.55l-1.434 2.64c-6.22 11.28-13.681 21.237-21.941 31.11l-1.552 1.883c-1.291 1.515-2.676 2.949-4.073 4.367-3.824 0-4.803-1.125-7.781-3.465l-2.801-2.174-2.918-2.298q-2.855-2.238-5.719-4.465l-2.56-2.016C199 499.838 199 499.838 196 499c-2.4 1.142-2.4 1.142-4.93 2.895l-2.91 1.896-3.035 2.022q-2.96 1.952-5.93 3.894l-2.655 1.765c-2.457 1.478-4.852 2.546-7.54 3.528l-2.23-2.047-2.958-2.703-2.917-2.672c-2.783-2.545-2.783-2.545-5.47-4.535-39.052-32.89-47.082-106.534-51.25-153.959-1.152-13.748-1.417-27.479-1.425-41.271l-.002-3.053c.032-30.726 2.981-61.377 11.816-90.94 1.151-3.972 1.96-6.903.436-10.82-2.023-2.905-2.023-2.905-4.562-5.875-7.259-9.082-12.49-18.865-16.313-29.84l-.772-2.203c-2.796-8.14-5.077-16.419-7.362-24.715-6.422-23.22-13.53-45.915-23.945-67.71l-1.21-2.536-1.077-2.205C59 66 59 66 59 63q5.807-1.853 11.621-3.68 1.968-.621 3.933-1.248c42.12-13.442 83.64-11.239 123.043 9.086 5.464 2.94 10.189 6.13 14.888 10.172 5.801 5.121 5.801 5.121 13.1 6.74 3.412-.865 6.558-1.948 9.837-3.2 5.496-1.855 11.225-2.905 16.89-4.12l3.636-.816C264.613 74 264.613 74 268 74l-.977-3.426c-3.844-15.477-.708-31.327 7.23-44.949 8.713-13.097 20.828-21.265 35.97-25.203C325.743-1.936 341.93-.218 355 9" fill="#00E400"/><path d="M355 9c3.505 2.837 6.785 5.84 10 9l1.754 1.715c9.85 10.518 13.885 25.44 13.484 39.598-.41 4.627-1.255 9.15-2.238 13.687l2.691.664a1974 1974 0 0 1 28.5 7.317l2.852.75 2.532.668L417 83l2.591.72c2.376.492 2.376.492 4.223-.581l1.682-1.385 1.919-1.526 2.022-1.665C447.718 64.263 468.41 55.942 491 51l3.352-.746C524.072 44.907 559.315 49.579 586 64c-.645 5.039-2.854 9.214-5 13.75-8.015 17.425-13.943 35.494-19.187 53.918C551.44 168.077 551.44 168.077 544 182l-1.45 2.91c-3.263 6.358-7.218 11.548-11.987 16.875-2.344 4.822-.94 8.205.437 13.215q.694 2.947 1.367 5.898l.74 3.16c2.521 10.885 4.636 21.753 6.206 32.817l.481 3.396c2.003 14.817 2.447 29.486 2.456 44.416l.002 3.07c-.02 18.56-.944 36.83-3.252 55.243l-.257 2.063c-6.547 51.905-18.282 112.641-60.044 148.234C476 515 476 515 474.093 514.757c-2.298-.831-4.201-1.873-6.28-3.155l-2.368-1.454-2.445-1.523-2.445-1.5c-6.226-3.842-6.226-3.842-8.567-5.854-1.871-1.468-1.871-1.468-3.949-1.167-2.533 1.113-4.48 2.538-6.664 4.24l-2.64 2.027L436 508.5a1003 1003 0 0 1-5.375 4.156l-2.398 1.87c-2.144 1.419-3.715 2.047-6.227 2.474-29-32.787-29-32.787-29-42l-3.39.77c-42.862 9.374-88.546 9.17-131.547.78-3.036-.639-3.036-.639-6.063-.55l-1.434 2.64c-6.22 11.28-13.681 21.237-21.941 31.11l-1.552 1.883c-1.291 1.515-2.676 2.949-4.073 4.367-3.824 0-4.803-1.125-7.781-3.465l-2.801-2.174-2.918-2.298q-2.855-2.238-5.719-4.465l-2.56-2.016C199 499.838 199 499.838 196 499c-2.4 1.142-2.4 1.142-4.93 2.895l-2.91 1.896-3.035 2.022q-2.96 1.952-5.93 3.894l-2.655 1.765c-2.457 1.478-4.852 2.546-7.54 3.528l-2.23-2.047-2.958-2.703-2.917-2.672c-2.783-2.545-2.783-2.545-5.47-4.535-39.052-32.89-47.082-106.534-51.25-153.959-1.152-13.748-1.417-27.479-1.425-41.271l-.002-3.053c.032-30.726 2.981-61.377 11.816-90.94 1.151-3.972 1.96-6.903.436-10.82-2.023-2.905-2.023-2.905-4.562-5.875-7.259-9.082-12.49-18.865-16.313-29.84l-.772-2.203c-2.796-8.14-5.077-16.419-7.362-24.715-6.422-23.22-13.53-45.915-23.945-67.71l-1.21-2.536-1.077-2.205C59 66 59 66 59 63q5.807-1.853 11.621-3.68 1.968-.621 3.933-1.248c42.12-13.442 83.64-11.239 123.043 9.086 5.464 2.94 10.189 6.13 14.888 10.172 5.801 5.121 5.801 5.121 13.1 6.74 3.412-.865 6.558-1.948 9.837-3.2 5.496-1.855 11.225-2.905 16.89-4.12l3.636-.816C264.613 74 264.613 74 268 74l-.977-3.426c-3.844-15.477-.708-31.327 7.23-44.949 8.713-13.097 20.828-21.265 35.97-25.203C325.743-1.936 341.93-.218 355 9m132 70-2.008.519c-19.047 5.1-36.975 15.688-50.305 30.168-4.18 4.254-4.18 4.254-8.437 4.75-1.965-.55-1.965-.55-4.25-1.437l-2.941-1.043a765 765 0 0 1-7.043-2.562c-58.15-20.758-129.097-18.899-186.638 2.56-7.492 2.734-7.492 2.734-11.378 1.045-2.113-1.898-2.113-1.898-4.312-4.375-19.675-20.403-48.816-32.017-76.899-32.875-13.457-.215-26.896-.048-39.789 4.25a770 770 0 0 0 5.488 16.07c8.65 24.575 8.65 24.575 11.762 37.18 4.608 18.614 10.362 36.73 22.75 51.75 1.649-2.473 2.706-4.504 3.813-7.219 6.59-15.913 13.587-31.534 23.886-45.433 1.493-2.206 1.493-2.206 1.192-4.434C155.458 114.09 139.07 105.406 126 99q.648-2.065 1.313-4.125l.738-2.32c1.105-2.974 2.492-5.74 3.949-8.555 10.205 4.684 19.093 10.186 28 17l2.152 1.621C170.4 109.222 177.824 118.877 181 129c-.602 1.969-.602 1.969-2 4l-1.812 2.82-2.188 3.305c-33.097 50.984-47.261 110.052-47.187 170.375l.001 2.793c.026 14.657.48 29.137 2.186 43.707l.39 3.477C134.475 395.096 141.192 431.402 159 463l1.578 3.07c3.203 6.187 6.96 11.584 11.422 16.93 7.431-4.216 14.474-8.6 21.406-13.594C196 468 196 468 197.926 468.242c2.339.855 3.906 1.94 5.86 3.48l2.107 1.632 4.351 3.43 2.104 1.626 1.906 1.504c1.828 1.35 1.828 1.35 4.746 1.086a82 82 0 0 0 4.563-6.75l1.208-1.922c3.865-5.75 3.865-5.75 5.229-12.328-6.594-2.296-13.25-4.22-20-6 .36-.904.722-1.807 1.094-2.738l1.406-3.575 1.406-3.55c1.259-3.055 1.259-3.055 1.094-6.137l3.2 1.137c11.035 3.841 22.121 6.761 33.513 9.336 2.965.683 5.906 1.445 8.85 2.214 5.772 1.448 11.551 2.451 17.437 3.313l3.428.52c11.996 1.628 23.878 1.786 35.973 1.74 3.396-.01 6.791 0 10.187.013 16.85.012 33.555-.728 50.1-4.148l2.637-.528c2.561-.52 5.118-1.056 7.675-1.597l2.172-.444c13.584-2.802 26.677-7.2 39.828-11.556 1.242 5.318 2.308 10.582 3 16l-3.648 1.023-4.727 1.352-2.406.672-2.305.664-2.126.603c-2.002.63-2.002.63-3.788 2.686 3.635 6.967 7.203 13.75 12 20 3.459-1.579 6.378-3.626 9.438-5.875l2.808-2.055c2.627-1.974 5.2-4.002 7.754-6.07 4.14 1.493 7.656 3.534 11.375 5.875l3.457 2.14c1.82 1.14 3.634 2.291 5.43 3.47 1.935 1.279 1.935 1.279 4.738 2.515 9.056-3.042 14.377-17.5 18.441-25.523C494.177 445.682 497.61 435.32 501 425l1.247-3.737c3.146-9.596 5.468-19.215 7.315-29.138l.445-2.376c7.96-43.107 11.254-89.337 3.993-132.749l-.438-2.813c-6.268-40.08-19.822-91.067-47.843-121.68C464 130 464 130 464.133 127.474 471.196 107.333 490.32 93.02 509 84l4-1 7 15-6 2c-2.667 1.332-5.165 2.913-7.687 4.5l-2.119 1.329C496.304 110.91 488.167 117.064 483 125c.373 3.788 1.631 6.43 3.625 9.633l1.629 2.664 1.746 2.828c8.295 13.726 15.082 27.977 21 42.875h2c10.036-13.81 15.696-29.625 20.07-45.965 2.669-9.959 5.735-19.755 8.992-29.535l.648-1.953c2.31-6.951 4.675-13.796 7.686-20.479.705-2.414.42-3.722-.396-6.068q-3.062-.722-6.125-1.437l-3.445-.81C522.708 72.859 504.423 74.37 487 79" fill="#004A3C"/><path d="M320.147 205.74c2.85.01 5.699 0 8.548-.013 40.206-.033 40.206-.033 54.305 12.273 3.05 4.066 3.704 8.102 3.54 13.094-1.918 10.336-8.77 19.193-15.54 26.906l-1.71 2.11c-11.046 13.377-27.772 24.278-44.938 27.367-15.345.943-30.714-10.734-41.786-20.13C275.298 260.7 269.683 253.65 265 245l-1.477-2.465c-3.48-6.155-4.691-11.49-3.523-18.535 2.879-6.357 8.366-10.323 14.59-13.195 14.46-5.356 30.343-5.134 45.557-5.066" fill="#7DFD5C"/><path d="M319.303 188.815c2.664-.002 5.327-.02 7.99-.04 8.709-.029 17.32.21 25.988 1.096l2.285.23c14.09 1.605 29.25 6.715 39.434 16.899 6.865 8.751 9.066 16.918 8 28-3.21 15.336-12.693 27.692-23 39l-1.73 1.98c-13.733 14.862-35.931 27.664-56.333 28.52-23.848-1.008-45.256-18.226-61-34.625C255.25 263.489 251.05 256.487 247 249l-1.45-2.512c-4.385-8.817-4.184-20.786-1.515-30.101 5.339-11.704 15.115-18.238 26.834-22.691 6.507-2.125 13.35-2.95 20.131-3.696l2.291-.283c8.65-.95 17.32-.903 26.012-.902M262 220c-2.962 4.851-3.026 9.496-2 15 8.368 22.343 26.847 39.114 48.125 49 10.464 4.58 18.883 3.572 29.48-.516 8.333-3.643 15.413-8.71 22.395-14.484.73-.583 1.46-1.165 2.21-1.766 10.434-8.712 21.795-22.365 24.321-36.129.18-4.995-.48-9.037-3.531-13.105-15.218-13.283-37.909-12.36-56.928-12.316-2.805.003-5.61-.02-8.416-.045-30.441-.36-30.441-.36-55.656 14.361" fill="#004C3C"/><path d="M350.813 28c7.945 8.668 11.469 19.946 11.421 31.39-.305 4.696-1.442 8.28-3.234 12.61l-2.252-.214c-10.585-.89-21.127-.938-31.743-.916q-4.598.005-9.194-.007C305.826 70.86 295.94 70.954 286 72c-3.764-10.512-4.58-19.901-.258-30.402 4.775-9.86 11.487-17.724 21.86-21.813 15.13-4.953 31.023-2.483 43.21 8.215" fill="#FCAF31"/><path d="M429 170c4.914 2.282 7.856 5.688 11 10 1.582 4.958 2.085 10.338.094 15.223-3.184 5.46-7.019 8.752-13.094 10.777-7.136.476-12.04-.579-17.75-5.25-3.386-4.138-5.012-7.882-5.687-13.187.733-5.97 2.948-10.576 7.562-14.5 5.652-4.055 11.06-3.653 17.875-3.063m-200 0c5.28 2.501 8.49 6.207 11.25 11.313 1.75 6.268 1.319 10.275-1.75 15.937-3.07 4.685-6.056 7.304-11.5 8.75-5.583.907-10.067-.3-15-3-4.634-3.792-7.432-7.985-8.285-14.016-.21-4.784.628-8.042 3.285-11.984 7.004-6.923 12.116-7.867 22-7" fill="#004C3C"/><path d="M306 216c4.157 1.795 6.512 4.248 9 8 .531 3.559.531 3.559.5 7.438l.031 3.87c-.716 4.977-2.914 7.895-6.219 11.567-3.716 1.808-7.267 1.763-11.312 1.125-4.066-2.07-6.415-3.728-8-8-1.456-13.061-1.456-13.061 1.273-18.57 4.302-5.015 8.12-6.13 14.727-5.43m43 0c4.156 1.795 6.498 4.26 9 8 .496 3.34.496 3.34.438 6.938l-.004 3.59c-.641 5.131-2.23 8.383-6.059 11.847-4.29 2.066-7.694 2.489-12.375 1.625-3.597-2.143-5.51-4.125-7-8-1.456-13.061-1.456-13.061 1.273-18.57 4.302-5.015 8.12-6.13 14.727-5.43" fill="#014C3D"/></svg>